<svg width="24" height="24" viewBox="0 0 24 24" fill="none" xmlns="http://www.w3.org/2000/svg">
<mask id="path-1-inside-1_76_788" fill="white">
<path d="M14.667 13.6641C15.9554 13.6642 16.9998 14.7087 17 15.9971C17 17.2856 15.9555 18.3309 14.667 18.3311C14.2415 18.3311 13.8435 18.2146 13.5 18.0156C13.1565 18.2146 12.7585 18.3311 12.333 18.3311C11.0445 18.3309 10 17.2856 10 15.9971C10.0002 14.7087 11.0446 13.6642 12.333 13.6641C12.7584 13.6641 13.1566 13.7796 13.5 13.9785C13.8434 13.7796 14.2416 13.6641 14.667 13.6641Z"/>
</mask>
<path d="M14.667 13.6641C15.9554 13.6642 16.9998 14.7087 17 15.9971C17 17.2856 15.9555 18.3309 14.667 18.3311C14.2415 18.3311 13.8435 18.2146 13.5 18.0156C13.1565 18.2146 12.7585 18.3311 12.333 18.3311C11.0445 18.3309 10 17.2856 10 15.9971C10.0002 14.7087 11.0446 13.6642 12.333 13.6641C12.7584 13.6641 13.1566 13.7796 13.5 13.9785C13.8434 13.7796 14.2416 13.6641 14.667 13.6641Z" fill="#D9D9D9"/>
<path d="M14.667 13.6641L14.6672 12.1641H14.667V13.6641ZM17 15.9971H18.5V15.9969L17 15.9971ZM14.667 18.3311V19.8311H14.6672L14.667 18.3311ZM13.5 18.0156L14.2519 16.7177L13.5 16.2821L12.7481 16.7177L13.5 18.0156ZM12.333 18.3311L12.3328 19.8311H12.333V18.3311ZM10 15.9971L8.5 15.9969V15.9971H10ZM12.333 13.6641V12.1641H12.3328L12.333 13.6641ZM13.5 13.9785L12.7483 15.2766L13.5 15.7119L14.2517 15.2766L13.5 13.9785ZM14.667 13.6641L14.6668 15.1641C15.1269 15.1641 15.4999 15.5371 15.5 15.9973L17 15.9971L18.5 15.9969C18.4997 13.8802 16.7839 12.1644 14.6672 12.1641L14.667 13.6641ZM17 15.9971H15.5C15.5 16.4578 15.1264 16.831 14.6668 16.8311L14.667 18.3311L14.6672 19.8311C16.7846 19.8308 18.5 18.1134 18.5 15.9971H17ZM14.667 18.3311V16.8311C14.5193 16.8311 14.3791 16.7914 14.2519 16.7177L13.5 18.0156L12.7481 19.3136C13.3079 19.6378 13.9637 19.8311 14.667 19.8311V18.3311ZM13.5 18.0156L12.7481 16.7177C12.6209 16.7914 12.4807 16.8311 12.333 16.8311V18.3311V19.8311C13.0363 19.8311 13.6921 19.6378 14.2519 19.3136L13.5 18.0156ZM12.333 18.3311L12.3332 16.8311C11.8736 16.831 11.5 16.4578 11.5 15.9971H10H8.5C8.5 18.1134 10.2154 19.8308 12.3328 19.8311L12.333 18.3311ZM10 15.9971L11.5 15.9973C11.5001 15.5371 11.8731 15.1641 12.3332 15.1641L12.333 13.6641L12.3328 12.1641C10.2161 12.1644 8.50029 13.8802 8.5 15.9969L10 15.9971ZM12.333 13.6641V15.1641C12.4828 15.1641 12.623 15.204 12.7483 15.2766L13.5 13.9785L14.2517 12.6805C13.6901 12.3552 13.034 12.1641 12.333 12.1641V13.6641ZM13.5 13.9785L14.2517 15.2766C14.377 15.204 14.5172 15.1641 14.667 15.1641V13.6641V12.1641C13.966 12.1641 13.3099 12.3552 12.7483 12.6805L13.5 13.9785Z" fill="#23272B" mask="url(#path-1-inside-1_76_788)"/>
<path d="M3.08203 7.75H11.6992C14.7836 7.75012 17.6779 9.24009 19.4707 11.75L20.8252 13.6455C21.1013 14.0321 21.25 14.4957 21.25 14.9707C21.25 16.2295 20.2295 17.25 18.9707 17.25H16.8105L15.3105 15.75H11.6895L10.1895 17.25H3.1123C2.91222 17.25 2.75003 17.0878 2.75 16.8877V8.08203C2.75 7.89877 2.89877 7.75 3.08203 7.75Z" fill="#F5F7F9" stroke="#23272B" stroke-width="1.5"/>
<rect x="4" y="4" width="8" height="1.5" rx="0.75" fill="#23272B"/>
<path d="M8 5V7.50072" stroke="#23272B" stroke-width="1.5" stroke-linecap="square"/>
<path d="M2 19.25C2 18.8358 2.33579 18.5 2.75 18.5H21.25C21.6642 18.5 22 18.8358 22 19.25C22 19.6642 21.6642 20 21.25 20H2.75C2.33579 20 2 19.6642 2 19.25Z" fill="#23272B"/>
<path d="M3 7.75H9.75V12C9.75 12.1381 9.63807 12.25 9.5 12.25H2.75V8C2.75 7.86193 2.86193 7.75 3 7.75Z" stroke="#23272B" stroke-width="1.5"/>
<path d="M6 8V11.5" stroke="#23272B" stroke-width="1.5" stroke-linecap="round"/>
<path d="M12 7C13.8066 7.05272 15.543 7.57929 17.0508 8.49609H13.5V11.4961H19V10.0312C19.3911 10.4243 19.7534 10.8509 20.0811 11.3096L20.5 11.8955V12.9961H13L12.8975 12.9912C12.4272 12.9433 12.053 12.5688 12.0049 12.0986L12 11.9961V7Z" fill="#23272B"/>
</svg>
